<svg width="129" height="32" viewBox="0 0 129 32" fill="none" xmlns="http://www.w3.org/2000/svg">
<path d="M25.3794 0L30.8967 4.13793L25.3794 8.27586V6.06897H19.7808L15.551 15.5853H15.3732L11.1569 6.06897H5.51734V20.5964L1.65527 23.3006V6.2069C1.65527 3.99776 3.44613 2.2069 5.65527 2.2069H25.3794V0Z" fill="#FF00BD"/>
<path d="M5.51724 29.7931V32L0 27.8621L5.51724 23.7242V25.9311H10.3082V14.5231H10.5547L13.9768 22.3807H16.8788L20.2734 14.5231H20.5199V25.9311H25.3793V11.5093L29.2414 8.80505V25.7931C29.2414 28.0023 27.4505 29.7931 25.2414 29.7931H5.51724Z" fill="white"/>
<path d="M37.6865 8.26082H42.9114L46.5054 17.0193H46.6866L50.2806 8.26082H55.5056V23.7241H51.3981V14.7844H51.2773L47.8343 23.6033H45.3578L41.9148 14.724H41.794V23.7241H37.6865V8.26082Z" fill="white"/>
<path d="M63.1428 23.9355C61.8844 23.9355 60.8072 23.6864 59.9112 23.188C59.0152 22.6847 58.3282 21.985 57.85 21.089C57.3718 20.188 57.1327 19.1435 57.1327 17.9556C57.1327 16.7676 57.3718 15.7257 57.85 14.8297C58.3282 13.9287 59.0152 13.229 59.9112 12.7307C60.8072 12.2273 61.8844 11.9756 63.1428 11.9756C64.4012 11.9756 65.4784 12.2273 66.3744 12.7307C67.2704 13.229 67.9575 13.9287 68.4357 14.8297C68.9139 15.7257 69.153 16.7676 69.153 17.9556C69.153 19.1435 68.9139 20.188 68.4357 21.089C67.9575 21.985 67.2704 22.6847 66.3744 23.188C65.4784 23.6864 64.4012 23.9355 63.1428 23.9355ZM63.173 20.8549C63.5254 20.8549 63.8299 20.7367 64.0866 20.5001C64.3433 20.2635 64.5422 19.9262 64.6831 19.4883C64.824 19.0504 64.8945 18.5294 64.8945 17.9254C64.8945 17.3163 64.824 16.7953 64.6831 16.3624C64.5422 15.9245 64.3433 15.5873 64.0866 15.3507C63.8299 15.1141 63.5254 14.9958 63.173 14.9958C62.8005 14.9958 62.4809 15.1141 62.2141 15.3507C61.9473 15.5873 61.7435 15.9245 61.6025 16.3624C61.4616 16.7953 61.3911 17.3163 61.3911 17.9254C61.3911 18.5294 61.4616 19.0504 61.6025 19.4883C61.7435 19.9262 61.9473 20.2635 62.2141 20.5001C62.4809 20.7367 62.8005 20.8549 63.173 20.8549Z" fill="white"/>
<path d="M76.4316 23.9355C75.1732 23.9355 74.096 23.6864 73.2 23.188C72.304 22.6847 71.6169 21.985 71.1387 21.089C70.6605 20.188 70.4214 19.1435 70.4214 17.9556C70.4214 16.7676 70.6605 15.7257 71.1387 14.8297C71.6169 13.9287 72.304 13.229 73.2 12.7307C74.096 12.2273 75.1732 11.9756 76.4316 11.9756C77.5692 11.9756 78.5533 12.182 79.3838 12.5948C80.2194 13.0025 80.8662 13.5814 81.3243 14.3314C81.7823 15.0763 82.0139 15.9522 82.0189 16.9589H78.1531C78.0977 16.3499 77.9215 15.8868 77.6245 15.5696C77.3326 15.2475 76.9551 15.0864 76.492 15.0864C76.1296 15.0864 75.8124 15.1921 75.5406 15.4035C75.2688 15.6099 75.0574 15.9245 74.9064 16.3473C74.7554 16.7651 74.6799 17.2911 74.6799 17.9254C74.6799 18.5596 74.7554 19.0881 74.9064 19.511C75.0574 19.9288 75.2688 20.2434 75.5406 20.4548C75.8124 20.6612 76.1296 20.7643 76.492 20.7643C76.799 20.7643 77.0709 20.6939 77.3074 20.5529C77.544 20.407 77.7353 20.1955 77.8813 19.9187C78.0323 19.6368 78.1229 19.2945 78.1531 18.8918H82.0189C82.0038 19.9137 81.7697 20.8046 81.3167 21.5647C80.8637 22.3197 80.2219 22.9036 79.3913 23.3164C78.5658 23.7291 77.5792 23.9355 76.4316 23.9355Z" fill="white"/>
<path d="M87.4835 20.9758L87.5137 16.0227H88.0574L90.8661 12.1266H95.5474L90.8359 18.1972H89.6581L87.4835 20.9758ZM83.7385 23.7241V8.26082H87.9064V23.7241H83.7385ZM90.8963 23.7241L88.2386 19.1335L90.9567 16.1737L95.6682 23.7241H90.8963Z" fill="white"/>
<path d="M96.5724 23.7241V8.26082H100.74V14.1502H100.801C100.952 13.7575 101.173 13.3976 101.465 13.0705C101.757 12.7382 102.119 12.474 102.552 12.2777C102.985 12.0763 103.489 11.9756 104.062 11.9756C104.828 11.9756 105.555 12.1795 106.244 12.5872C106.939 12.9949 107.503 13.6367 107.936 14.5126C108.374 15.3884 108.593 16.526 108.593 17.9254C108.593 19.2643 108.384 20.3742 107.966 21.2551C107.553 22.136 107 22.7929 106.305 23.2258C105.615 23.6587 104.858 23.8751 104.032 23.8751C103.489 23.8751 103.003 23.787 102.575 23.6109C102.152 23.4296 101.79 23.1855 101.488 22.8785C101.191 22.5664 100.962 22.214 100.801 21.8214H100.71V23.7241H96.5724ZM100.65 17.9254C100.65 18.4891 100.723 18.9774 100.869 19.3902C101.02 19.7979 101.231 20.115 101.503 20.3415C101.78 20.563 102.109 20.6737 102.492 20.6737C102.874 20.6737 103.199 20.5655 103.466 20.3491C103.738 20.1276 103.944 19.813 104.085 19.4053C104.231 18.9925 104.304 18.4992 104.304 17.9254C104.304 17.3515 104.231 16.8608 104.085 16.453C103.944 16.0403 103.738 15.7257 103.466 15.5092C103.199 15.2878 102.874 15.177 102.492 15.177C102.109 15.177 101.78 15.2878 101.503 15.5092C101.231 15.7257 101.02 16.0403 100.869 16.453C100.723 16.8608 100.65 17.3515 100.65 17.9254Z" fill="white"/>
<path d="M110.337 23.7241V12.1266H114.505V23.7241H110.337ZM112.421 10.9186C111.857 10.9186 111.374 10.7323 110.971 10.3598C110.568 9.98736 110.367 9.53937 110.367 9.01587C110.367 8.49237 110.568 8.04438 110.971 7.67189C111.374 7.2994 111.857 7.11316 112.421 7.11316C112.99 7.11316 113.473 7.2994 113.87 7.67189C114.273 8.04438 114.474 8.49237 114.474 9.01587C114.474 9.53937 114.273 9.98736 113.87 10.3598C113.473 10.7323 112.99 10.9186 112.421 10.9186Z" fill="white"/>
<path d="M120.796 17.2005V23.7241H116.628V12.1266H120.585V14.3314H120.705C120.957 13.5965 121.4 13.0201 122.034 12.6023C122.674 12.1845 123.419 11.9756 124.269 11.9756C125.09 11.9756 125.802 12.1644 126.406 12.5419C127.015 12.9144 127.486 13.4278 127.818 14.0822C128.155 14.7366 128.321 15.4841 128.316 16.3247V23.7241H124.148V17.2005C124.153 16.6267 124.007 16.1762 123.711 15.849C123.419 15.5218 123.011 15.3582 122.487 15.3582C122.145 15.3582 121.846 15.4337 121.589 15.5847C121.337 15.7307 121.143 15.9421 121.007 16.219C120.872 16.4908 120.801 16.818 120.796 17.2005Z" fill="white"/>
</svg>
